<svg xmlns="http://www.w3.org/2000/svg" viewBox="0 0 200 200"><defs><style>.cls-1{fill:none;stroke:#fff;stroke-linecap:round;stroke-linejoin:round;stroke-width:4px;fill-rule:evenodd;}</style></defs><title>icon-05</title><g id="_16" data-name="16"><path class="cls-1" d="M187.5,49.67a72.37,72.37,0,0,1-19.42,5.27A33.32,33.32,0,0,0,183,36.42a68.9,68.9,0,0,1-21.57,8.14A33.76,33.76,0,0,0,136.68,34C118.06,34,102.85,49,102.85,67.29a34.51,34.51,0,0,0,1,7.61A96.07,96.07,0,0,1,34,40.09,32.89,32.89,0,0,0,44.42,84.57a32.86,32.86,0,0,1-15.3-4.12v.45a31.6,31.6,0,0,0,2.32,12,33.76,33.76,0,0,0,24.88,20.59,33.45,33.45,0,0,1-8.94,1.25A30,30,0,0,1,41,114a34.13,34.13,0,0,0,31.59,23.27,68.45,68.45,0,0,1-42,14.23c-2.78,0-5.37-.19-8.14-.45A97.68,97.68,0,0,0,74.4,166c52.88,0,85.54-36.6,94-74.63a91.93,91.93,0,0,0,2.24-20.13V66.94A70.19,70.19,0,0,0,187.5,49.67Z"/></g></svg>